#!OML:ASF F:\VICON\USERDATA\INSTALL\rory3\rory3.ASF
:FULLY-SPECIFIED
:DEGREES
5023
root -2.06963 17.4663 0.137802 4.95342 10.9471 -0.870821
lowerback 11.2108 1.81154 -1.29628
upperback 2.36337 2.33686 1.79269
thorax -3.93925 1.18042 2.2601
lowerneck -28.2156 -2.98008 -9.28849
upperneck 21.7784 -1.43251 4.27228
head 11.9091 -0.851647 2.87755
rclavicle 4.25399e-014 -3.97569e-016
rhumerus -20.6423 5.00454 -46.2794
rradius 108.142
rwrist 33.7553
rhand -35.4694 7.63573
rfingers 7.12502
rthumb -8.59775 -22.1692
lclavicle 4.25399e-014 -3.97569e-016
lhumerus -31.9699 -7.73358 67.7894
lradius 94.0108
lwrist -16.8373
lhand -25.9077 17.3608
lfingers 7.12502
lthumb 0.634916 47.3396
rfemur -16.7906 -10.3116 16.7978
rtibia 38.7517
rfoot -24.0851 -7.85451
rtoes 2.02141
lfemur -22.1026 -5.29827 -11.8394
ltibia 35.7487
lfoot -15.9528 -1.45816
ltoes -24.3256
5024
root -2.05478 17.4831 0.143624 5.27767 12.0116 -0.890004
lowerback 11.1805 2.0581 -1.09799
upperback 2.23665 2.67374 1.48211
thorax -4.04793 1.3449 1.77335
lowerneck -28.2293 -3.22003 -9.47275
upperneck 21.8262 -1.7338 4.43224
head 11.9579 -0.980508 2.91537
rclavicle -5.86415e-015 3.37934e-014
rhumerus -20.3251 4.25234 -45.767
rradius 108.116
rwrist 33.544
rhand -34.9458 7.42438
rfingers 7.12502
rthumb -8.09242 -22.4007
lclavicle -5.86415e-015 3.37934e-014
lhumerus -32.8474 -7.89508 67.2293
lradius 94.1091
lwrist -17.0569
lhand -25.4936 17.1122
lfingers 7.12502
lthumb 1.03483 47.0894
rfemur -16.7164 -10.5227 16.9068
rtibia 38.346
rfoot -24.4051 -8.44646
rtoes 2.2857
lfemur -22.5688 -5.68023 -11.8121
ltibia 35.4151
lfoot -15.6377 -2.04123
ltoes -24.2034
5025
root -2.04068 17.5015 0.146586 5.65093 12.9817 -0.827887
lowerback 11.1625 2.34055 -1.00338
upperback 2.00203 3.04458 1.14251
thorax -4.2747 1.52717 1.307
lowerneck -27.5367 -3.47052 -9.78924
upperneck 21.5353 -2.0979 4.69455
head 11.7566 -1.13394 2.99519
rclavicle -1.72943e-014 -1.43125e-014
rhumerus -20.2947 3.62422 -45.177
rradius 107.866
rwrist 33.3194
rhand -34.535 7.65262
rfingers 7.12502
rthumb -7.69598 -22.1873
lclavicle -1.72943e-014 -1.43125e-014
lhumerus -33.8637 -8.13733 66.7315
lradius 94.2057
lwrist -17.0692
lhand -25.6207 17.1445
lfingers 7.12502
lthumb 0.912072 47.1222
rfemur -16.7118 -10.6466 16.9345
rtibia 37.9278
rfoot -24.7078 -9.10533
rtoes 2.58634
lfemur -23.0463 -6.01398 -11.8667
ltibia 35.0687
lfoot -15.3177 -2.61354
ltoes -23.7505
5026
root -2.02418 17.5202 0.153095 6.07669 13.8999 -0.725136
lowerback 11.0448 2.61717 -0.967713
upperback 1.89003 3.40071 0.810769
thorax -4.31576 1.70111 0.891083
lowerneck -27.2593 -3.76988 -10.1982
upperneck 21.3983 -2.47765 5.05564
head 11.6971 -1.28943 3.12903
rclavicle 6.55989e-015 2.78299e-014
rhumerus -20.0091 2.99114 -44.4119
rradius 107.532
rwrist 32.8805
rhand -34.6379 7.66385
rfingers 7.12502
rthumb -7.79525 -22.1724
lclavicle 6.55989e-015 2.78299e-014
lhumerus -34.7192 -8.29533 66.1943
lradius 94.3714
lwrist -16.9396
lhand -25.6609 17.7646
lfingers 7.12502
lthumb 0.873233 47.7426
rfemur -16.7435 -10.6654 16.9126
rtibia 37.5184
rfoot -25.099 -9.73398
rtoes 2.76063
lfemur -23.5167 -6.37237 -11.9686
ltibia 34.721
lfoot -15.0131 -3.06131
ltoes -23.6123
5027
root -2.00609 17.5404 0.160731 6.47138 14.7865 -0.673553
lowerback 10.8346 2.87341 -0.837128
upperback 1.965 3.73925 0.428582
thorax -4.09563 1.86431 0.38462
lowerneck -27.3436 -4.09782 -10.3885
upperneck 21.2029 -2.92506 5.34588
head 11.685 -1.4619 3.18682
rclavicle 5.84427e-014 -2.18663e-015
rhumerus -19.3311 2.18186 -43.746
rradius 107.031
rwrist 32.4112
rhand -34.5715 7.27341
rfingers 7.12502
rthumb -7.73117 -22.5653
lclavicle 5.84427e-014 -2.18663e-015
lhumerus -35.2109 -8.25383 65.4618
lradius 94.4084
lwrist -16.8745
lhand -25.7708 17.765
lfingers 7.12502
lthumb 0.767083 47.7433
rfemur -16.754 -10.7112 16.9437
rtibia 37.1107
rfoot -25.455 -10.3309
rtoes 3.17415
lfemur -23.957 -6.65659 -12.016
ltibia 34.3855
lfoot -14.7581 -3.56507
ltoes -23.3717
5028
root -1.98845 17.556 0.163912 6.73344 15.6912 -0.65701
lowerback 10.86 3.10184 -0.671501
upperback 2.01677 4.04556 0.0912786
thorax -4.02434 2.01206 -0.100529
lowerneck -27.4154 -4.36757 -10.477
upperneck 21.1163 -3.28429 5.45177
head 11.7013 -1.61336 3.17499
rclavicle 8.15017e-015 1.43125e-014
rhumerus -18.4367 1.40526 -43.0737
rradius 106.229
rwrist 31.8831
rhand -34.7322 7.05295
rfingers 7.12502
rthumb -7.88633 -22.7799
lclavicle 8.15017e-015 1.43125e-014
lhumerus -35.6807 -8.17487 64.7109
lradius 94.3259
lwrist -16.6801
lhand -25.8363 17.443
lfingers 7.12502
lthumb 0.703837 47.4216
rfemur -16.6362 -10.7797 16.9999
rtibia 36.693
rfoot -25.7108 -10.9463
rtoes 3.75769
lfemur -24.296 -6.90922 -12.0382
ltibia 34.0762
lfoot -14.4699 -4.24271
ltoes -23.1354
5029
root -1.97068 17.5727 0.168359 7.0301 16.557 -0.673421
lowerback 10.8225 3.31674 -0.457903
upperback 2.01866 4.34217 -0.201954
thorax -3.96471 2.15524 -0.562338
lowerneck -27.3247 -4.62789 -10.8015
upperneck 21.0263 -3.59479 5.71064
head 11.6918 -1.74416 3.26889
rclavicle -4.32108e-014 1.0138e-014
rhumerus -17.1609 0.810316 -42.2622
rradius 105.226
rwrist 31.2424
rhand -34.7815 6.71523
rfingers 7.12502
rthumb -7.9339 -23.1159
lclavicle -4.32108e-014 1.0138e-014
lhumerus -36.3642 -8.13304 63.97
lradius 94.3622
lwrist -16.2463
lhand -25.8077 17.4032
lfingers 7.12502
lthumb 0.731469 47.3817
rfemur -16.5583 -10.8161 17.0904
rtibia 36.2739
rfoot -26.0478 -11.4825
rtoes 4.47766
lfemur -24.6803 -7.08263 -12.0171
ltibia 33.7965
lfoot -14.1301 -5.02804
ltoes -22.4786
5030
root -1.95702 17.5864 0.177277 7.21132 17.5316 -0.674971
lowerback 10.8531 3.51976 -0.277961
upperback 2.07129 4.62081 -0.45862
thorax -3.89019 2.29072 -0.966353
lowerneck -27.0549 -4.86565 -11.1393
upperneck 20.7855 -3.88237 5.95325
head 11.592 -1.86811 3.36055
rclavicle 7.18855e-014 -1.69961e-014
rhumerus -16.0416 0.296416 -41.15
rradius 104.437
rwrist 30.4224
rhand -34.674 6.30705
rfingers 7.12502
rthumb -7.83016 -23.528
lclavicle 7.18855e-014 -1.69961e-014
lhumerus -37.1429 -8.19825 63.2388
lradius 94.5366
lwrist -16.0227
lhand -26.1326 18.0599
lfingers 7.12502
lthumb 0.417661 48.0392
rfemur -16.3558 -10.7687 17.1945
rtibia 35.9392
rfoot -26.5757 -12.2345
rtoes 4.55548
lfemur -24.9754 -7.2615 -12.0072
ltibia 33.5344
lfoot -13.8802 -5.81932
ltoes -22.0319
5031
root -1.94356 17.5991 0.181502 7.38923 18.4261 -0.777471
lowerback 11.0087 3.72919 0.0289078
upperback 2.02462 4.92076 -0.729775
thorax -3.97131 2.43376 -1.47174
lowerneck -26.606 -5.09509 -11.3607
upperneck 20.5193 -4.18956 6.05439
head 11.4483 -2.01268 3.37633
rclavicle 3.72721e-015 -2.75565e-014
rhumerus -15.7067 -0.153254 -40.036
rradius 103.805
rwrist 29.6702
rhand -34.4963 6.22378
rfingers 7.12502
rthumb -7.6586 -23.6175
lclavicle 3.72721e-015 -2.75565e-014
lhumerus -37.8023 -8.17287 62.5005
lradius 94.4266
lwrist -16.1222
lhand -26.6616 18.2296
lfingers 7.12502
lthumb -0.0932788 48.2093
rfemur -16.2518 -10.661 17.4025
rtibia 35.674
rfoot -27.1483 -12.9225
rtoes 4.96027
lfemur -25.2814 -7.48215 -11.8816
ltibia 33.2617
lfoot -13.6612 -6.42773
ltoes -21.8929
5032
root -1.92049 17.6098 0.166373 8.17551 18.7679 -0.561529
lowerback 10.8263 4.08819 0.0718449
upperback 1.86156 5.38293 -1.15769
thorax -3.98512 2.65972 -1.9954
lowerneck -26.2654 -5.2678 -11.365
upperneck 20.2122 -4.43035 5.93585
head 11.292 -2.13685 3.28531
rclavicle 1.65954e-014 -4.22417e-016
rhumerus -15.1221 -0.857616 -39.0389
rradius 102.802
rwrist 29.1548
rhand -34.0976 6.39965
rfingers 7.12502
rthumb -7.2738 -23.4553
lclavicle 1.65954e-014 -4.22417e-016
lhumerus -38.2253 -7.77295 61.7572
lradius 93.9521
lwrist -16.3794
lhand -27.1317 17.3256
lfingers 7.12502
lthumb -0.547247 47.3046
rfemur -16.9566 -10.5888 17.2419
rtibia 35.5014
rfoot -27.2201 -13.2012
rtoes 5.54466
lfemur -26.0734 -7.49405 -12.1027
ltibia 32.9927
lfoot -13.3243 -6.76724
ltoes -21.3714
5033
root -1.90098 17.6198 0.160361 8.49835 19.7425 -0.257271
lowerback 11.0783 4.20706 0.131317
upperback 1.87605 5.53062 -1.51011
thorax -4.06337 2.73009 -2.4335
lowerneck -26.0675 -5.41676 -11.3926
upperneck 20.0266 -4.61563 5.82247
head 11.2028 -2.2372 3.21224
rclavicle 8.89561e-015 -1.07344e-014
rhumerus -14.098 -1.58933 -38.0479
rradius 101.485
rwrist 28.7783
rhand -33.8382 6.40427
rfingers 7.12502
rthumb -7.02335 -23.4592
lclavicle 8.89561e-015 -1.07344e-014
lhumerus -38.715 -7.3872 60.9919
lradius 93.6729
lwrist -16.7744
lhand -27.2252 16.977
lfingers 7.12502
lthumb -0.637608 46.9558
rfemur -16.928 -10.9072 17.0059
rtibia 35.3795
rfoot -27.5898 -13.5745
rtoes 5.64856
lfemur -26.4438 -7.84973 -12.4247
ltibia 32.7567
lfoot -13.0789 -7.41113
ltoes -21.0797
